# xmcd CD database file
#
# Track frame offsets:
#	150
#	19655
#	42640
#	69295
#	92610
#	120140
#	140412
#	163870
#	191880
#
# Disc length: 2859 seconds
#
# Revision: 0
# Processed by: cddbd v1.5.1PL2 Copyright (c) Steve Scherf et al.
# Submitted via: CDex 1.51
#
DISCID=740b2909
DTITLE=ROLAND HANNA - When You Wish Upon A Star
DYEAR=1979
DGENRE=Jazz
TTITLE0=When You Wish Upon A Star
TTITLE1=Maria
TTITLE2=Sunrise, Sunset
TTITLE3=I've Grown Accustomed To Your Face
TTITLE4=Can't Help Lovin' That Man
TTITLE5=I've Never Been In Love Before
TTITLE6=Dec. 28th
TTITLE7=From The Bottom Of My Soul
TTITLE8=The Pendulum Swings
EXTD=YEAR: 1979
EXTT0=
EXTT1=
EXTT2=
EXTT3=
EXTT4=
EXTT5=
EXTT6=
EXTT7=
EXTT8=
PLAYORDER=
